<svg xmlns="http://www.w3.org/2000/svg" height="48" viewBox="0 -960 960 960" width="48"><path d="m435.154-256.848 225.383-224.998-37.768-37.769-186.615 187-100.769-100.769L297.001-395l138.153 138.152ZM235.694-84.001q-28.254 0-49.473-21.22-21.22-21.219-21.22-49.473v-650.612q0-28.254 21.22-49.473 21.219-21.22 49.473-21.22h343.537l215.768 214.768v506.537q0 28.254-21.22 49.473-21.219 21.22-49.473 21.22H235.694ZM550.539-633.77v-183.845H235.694q-4.616 0-8.463 3.846-3.846 3.847-3.846 8.463v650.612q0 4.616 3.846 8.463 3.847 3.846 8.463 3.846h488.612q4.616 0 8.463-3.846 3.846-3.847 3.846-8.463V-633.77H550.539ZM223.385-817.615v183.845-183.845 675.23V-817.615Z"/></svg>