<svg xmlns="http://www.w3.org/2000/svg" height="48" viewBox="0 -960 960 960" width="48"><path d="M712.808-86.001q-78.324 0-132.104-53.78-53.779-53.78-53.779-132.104 0-78.324 53.798-132.103 53.798-53.78 131.893-53.78 78.516 0 132.296 53.798 53.779 53.798 53.779 131.893 0 78.516-53.779 132.296-53.78 53.78-132.104 53.78Zm60.265-88.077L799.846-201 725-274.846v-122.462h-37.769V-261l85.842 86.922Zm-578.379 47.077q-29.596 0-50.145-20.548-20.548-20.549-20.548-50.145v-570.612q0-30.846 19.923-50.77 19.924-19.923 50.77-19.923h196q8.076-30.23 32.458-49.46Q447.534-907.69 480-907.69q31.421 0 55.825 19.231 24.405 19.23 33.481 49.46h196q30.846 0 50.77 19.923 19.923 19.924 19.923 50.77v275.613q-11.923-5.922-28.093-11.479-16.17-5.557-30.291-8.443v-255.691q0-4.616-3.846-8.463-3.847-3.846-8.463-3.846h-73.077v102.692H267.771v-102.692h-73.077q-4.616 0-8.463 3.846-3.846 3.847-3.846 8.463v570.612q0 5.385 3.462 8.847 3.462 3.462 8.847 3.462H478.77q3.846 13.538 11.616 28.884 7.769 15.346 17.461 29.5H194.694ZM481-776.999q14.461 0 25.307-10.346 10.847-10.346 10.847-25.808 0-15.461-10.847-25.807-10.846-10.346-25.307-10.346-15.461 0-25.807 10.346-10.347 10.346-10.347 25.807 0 15.462 10.347 25.808 10.346 10.346 25.807 10.346Z"/></svg>